<svg fill="none" height="230" viewBox="0 0 343 230" width="343" xmlns="http://www.w3.org/2000/svg"><path clip-rule="evenodd" d="m123.094 16.7268c-5.125-7.55408-7.688-11.33114-9.146-12.63899-2.629-2.357-3.396-2.76341-6.822-3.615177-1.901-.472633-4.648-.472633-10.1429-.472633h-66.9831c-9.3188 0-13.9782 0-17.6537 1.52241-4.90053 2.02988-8.79401 5.92336-10.82389 10.82389-1.52241 3.6755-1.52241 8.3349-1.52241 17.6537v170c0 9.319 0 13.978 1.52241 17.654 2.02988 4.9 5.92336 8.794 10.82389 10.824 3.6755 1.522 8.3349 1.522 17.6537 1.522h283c9.319 0 13.978 0 17.654-1.522 4.9-2.03 8.794-5.924 10.824-10.824 1.522-3.676 1.522-8.335 1.522-17.654v-170c0-9.3188 0-13.9782-1.522-17.6537-2.03-4.90053-5.924-8.79401-10.824-10.82389-3.676-1.52241-8.335-1.52241-17.654-1.52241h-68.007c-5.495 0-8.242 0-10.143.472633-3.426.851767-4.193 1.258177-6.822 3.615177-1.458 1.30785-4.021 5.08491-9.146 12.63899-10.256 15.1162-27.877 25.0905-47.894 25.0905s-37.638-9.9743-47.894-25.0905z" fill="#fff" fill-rule="evenodd"/></svg>