<svg width="20" height="20" viewBox="0 0 20 20" fill="none" xmlns="http://www.w3.org/2000/svg">
<path d="M9.98959 1C9.66694 1 9.34452 1.01735 9.02371 1.05193C8.72967 1.08196 8.43924 1.13123 8.15271 1.191C8.09726 1.2026 8.04177 1.21484 7.98632 1.22765C6.29811 1.61205 4.75659 2.47528 3.54661 3.71383C3.43409 3.82918 3.32394 3.94794 3.21623 4.07008C-0.0522858 7.82279 0.339966 13.5149 4.09237 16.7837C7.68481 19.9131 13.0923 19.7049 16.4335 16.3085C16.5463 16.1931 16.6564 16.0744 16.7639 15.9522C18.2064 14.3094 19.0013 12.1975 19 10.0112C19 5.03439 14.9659 0.999962 9.98959 1ZM3.94697 4.16439C3.99442 4.11513 4.04368 4.06797 4.09204 4.02021C4.1479 3.96525 4.20346 3.90998 4.26053 3.85681C4.31069 3.80995 4.36235 3.7649 4.41371 3.71924C4.47167 3.66788 4.52934 3.61651 4.58881 3.56695C4.64107 3.5228 4.69483 3.48044 4.74829 3.43779C4.80836 3.38973 4.86843 3.34167 4.9303 3.29541C4.98496 3.25426 5.04053 3.21431 5.09639 3.17527C5.15856 3.13081 5.22104 3.08515 5.28441 3.0437C5.34117 3.00525 5.39854 2.96801 5.45621 2.93106C5.52048 2.88991 5.58505 2.84936 5.65023 2.81091C5.70891 2.77588 5.76796 2.74141 5.82743 2.70758C5.89392 2.66974 5.96067 2.63279 6.02776 2.59675C6.08783 2.56472 6.1479 2.53337 6.20797 2.50273C6.27645 2.46819 6.34553 2.43485 6.41491 2.4021C6.47498 2.37357 6.53745 2.34503 6.59932 2.318C6.6699 2.28796 6.74139 2.25793 6.81287 2.22789C6.87504 2.20236 6.93691 2.17743 6.99968 2.1534C7.07237 2.12576 7.14595 2.09993 7.21954 2.0741C7.28231 2.05217 7.34508 2.03024 7.40875 2.00952C7.48354 1.98549 7.55893 1.96326 7.63461 1.94133C7.69799 1.92301 7.76076 1.90409 7.82443 1.88696C7.84876 1.88066 7.87309 1.87555 7.89742 1.86924C7.00839 2.73255 6.34865 3.80398 5.97791 4.98652C5.26504 4.79848 4.57492 4.53288 3.91994 4.19443C3.92985 4.18392 3.93826 4.17341 3.94697 4.16439ZM3.51507 4.64799C4.23654 5.03893 5.0016 5.34343 5.7944 5.55512C5.40575 6.90665 5.20174 8.30455 5.188 9.71078H1.58685C1.65229 7.85639 2.33036 6.07601 3.51507 4.64799ZM3.51507 15.3743C2.33043 13.9463 1.65236 12.1659 1.58685 10.3115H5.188C5.20174 11.7178 5.40571 13.1157 5.7944 14.4672C5.00163 14.679 4.23658 14.9834 3.51507 15.3743ZM7.82263 18.1366C7.76196 18.1212 7.69919 18.1014 7.63672 18.0831C7.56073 18.0609 7.48444 18.0386 7.40935 18.0143C7.34598 17.9939 7.28351 17.9719 7.22104 17.95C7.14715 17.9245 7.07327 17.8984 7.00028 17.8704C6.93781 17.8467 6.87624 17.8218 6.81437 17.7965C6.74259 17.7665 6.6708 17.7365 6.59962 17.7064C6.53835 17.6794 6.47738 17.6516 6.41671 17.6229C6.34673 17.5899 6.27705 17.5562 6.20647 17.5214C6.1464 17.4914 6.08633 17.4613 6.02626 17.4286C5.95838 17.3922 5.89111 17.355 5.82383 17.3165C5.76376 17.2832 5.70669 17.249 5.64873 17.2141C5.58265 17.1745 5.51778 17.1336 5.4529 17.0919C5.39584 17.0555 5.33877 17.0186 5.28261 16.9807C5.21863 16.9375 5.15526 16.8924 5.09249 16.8474C5.03752 16.808 4.98256 16.7687 4.9285 16.7272C4.86633 16.6803 4.80536 16.632 4.74469 16.5833C4.69153 16.541 4.63866 16.4989 4.5867 16.4554C4.52664 16.4055 4.46867 16.3535 4.4104 16.3019C4.35934 16.2565 4.30798 16.2118 4.25813 16.1655C4.20076 16.112 4.1452 16.0565 4.08933 16.0015C4.04098 15.9537 3.99172 15.9066 3.94427 15.8576C3.93556 15.8483 3.92715 15.8387 3.91844 15.8297C4.57338 15.4911 5.2635 15.2254 5.9764 15.0373C6.34722 16.2198 7.00693 17.2912 7.89591 18.1546C7.87159 18.1483 7.84696 18.1432 7.82263 18.1366ZM9.68928 18.3979C8.4041 18.2153 7.2775 16.8738 6.56869 14.8928C7.59347 14.6633 8.63923 14.5402 9.68928 14.5255V18.3979ZM9.68928 13.9247C8.57537 13.9394 7.46616 14.0717 6.38007 14.3194C6.00295 13.0163 5.80401 11.6681 5.78869 10.3115H9.68928V13.9247ZM9.68928 9.71078H5.78869C5.80397 8.35426 6.00291 7.00604 6.38007 5.70291C7.46616 5.9506 8.57541 6.08292 9.68928 6.0976V9.71078ZM9.68928 5.49685C8.6392 5.48221 7.59347 5.35909 6.56869 5.12949C7.2775 3.14853 8.4041 1.80707 9.68928 1.62444V5.49685ZM16.4642 4.64799C17.6488 6.07604 18.3269 7.85643 18.3924 9.71078H14.7913C14.7775 8.30455 14.5735 6.90665 14.1849 5.55512C14.9776 5.34332 15.7427 5.03886 16.4642 4.64799ZM12.1542 1.88546C12.2173 1.90108 12.2801 1.92091 12.3425 1.93923C12.4185 1.96146 12.4948 1.98368 12.5699 2.00801C12.6333 2.02844 12.6957 2.05037 12.7582 2.07229C12.8321 2.09783 12.906 2.12396 12.979 2.15189C13.0414 2.17562 13.103 2.20055 13.1649 2.22579C13.2367 2.25582 13.3084 2.28586 13.3796 2.3159C13.4409 2.34293 13.5019 2.37075 13.5625 2.3994C13.6325 2.43244 13.7022 2.46608 13.7728 2.50093C13.8329 2.53096 13.8929 2.561 13.953 2.59374C14.0209 2.63009 14.0881 2.66733 14.1554 2.70578C14.2155 2.73912 14.2726 2.77337 14.3305 2.80821C14.3966 2.84786 14.4615 2.88871 14.5263 2.93046C14.5834 2.96681 14.6405 3.00375 14.6966 3.0416C14.7606 3.08485 14.8237 3.12961 14.8865 3.17466C14.9417 3.21401 14.9967 3.25366 15.0511 3.29481C15.1129 3.34137 15.1736 3.38973 15.2346 3.43839C15.2874 3.48044 15.3406 3.5225 15.3925 3.56635C15.4526 3.61621 15.5106 3.66818 15.5688 3.71984C15.6199 3.7652 15.6713 3.80995 15.7211 3.85621C15.7785 3.90968 15.8341 3.96525 15.8899 4.02021C15.9383 4.06797 15.9875 4.11513 16.035 4.16409C16.0437 4.17341 16.0521 4.18302 16.0608 4.19203C15.4059 4.53062 14.7158 4.79634 14.0028 4.98441C13.6313 3.80177 12.9707 2.73045 12.0809 1.86744C12.1053 1.87375 12.1299 1.87885 12.1542 1.88546ZM10.29 1.62444C11.5752 1.80707 12.7017 3.14853 13.4106 5.12949C12.3858 5.35898 11.34 5.48209 10.29 5.49685V1.62444ZM10.29 6.0976C11.4039 6.08295 12.5131 5.95064 13.5992 5.70291C13.9763 7.00604 14.1752 8.35426 14.1906 9.71078H10.29V6.0976ZM10.29 10.3115H14.1906C14.1753 11.6681 13.9763 13.0163 13.5992 14.3194C12.5131 14.0717 11.4039 13.9394 10.29 13.9247V10.3115ZM10.29 18.3979V14.5255C11.3401 14.5401 12.3858 14.6632 13.4106 14.8928C12.7017 16.8738 11.5752 18.2153 10.29 18.3979ZM16.0323 15.8579C15.9848 15.9069 15.9359 15.954 15.8875 16.0018C15.8317 16.0568 15.7758 16.1123 15.7184 16.1658C15.6686 16.2124 15.6172 16.2559 15.5661 16.3025C15.5079 16.3541 15.4499 16.4058 15.3904 16.4557C15.3379 16.4995 15.2844 16.5419 15.231 16.5845C15.1709 16.6326 15.1108 16.6806 15.049 16.7269C14.9943 16.7681 14.9387 16.808 14.8829 16.8471C14.8207 16.8915 14.7582 16.9372 14.6948 16.9786C14.6381 17.0171 14.5807 17.0543 14.523 17.091C14.4588 17.1324 14.394 17.1725 14.3287 17.2111C14.2687 17.2462 14.2113 17.2805 14.1521 17.3144C14.0856 17.3523 14.0188 17.3892 13.9515 17.4253C13.8914 17.4573 13.8313 17.4886 13.7713 17.5193C13.7028 17.5538 13.6337 17.5872 13.5643 17.6199C13.5043 17.6484 13.4418 17.677 13.3799 17.704C13.3093 17.7341 13.2379 17.7641 13.1664 17.7941C13.1042 17.8194 13.0423 17.8446 12.9799 17.8683C12.9066 17.8963 12.833 17.9224 12.7591 17.9479C12.6966 17.9698 12.6342 17.9918 12.5708 18.0122C12.4957 18.0365 12.4206 18.0588 12.344 18.0807C12.2813 18.0993 12.2182 18.1179 12.1548 18.1351C12.1305 18.1414 12.1062 18.1465 12.0818 18.1528C12.9709 17.2895 13.6306 16.218 14.0013 15.0355C14.7142 15.2235 15.4043 15.4891 16.0593 15.8276C16.0494 15.8384 16.041 15.8489 16.0323 15.8579ZM16.4642 15.3743C15.7427 14.9834 14.9777 14.6789 14.1849 14.4672C14.5735 13.1157 14.7775 11.7178 14.7913 10.3115H18.3924C18.327 12.1659 17.6489 13.9463 16.4642 15.3743Z" fill="white" stroke="white" stroke-width="0.5"/>
</svg>
