<svg id="Group_60637" data-name="Group 60637" xmlns="http://www.w3.org/2000/svg" xmlns:xlink="http://www.w3.org/1999/xlink" width="24" height="24" viewBox="0 0 24 24">
  <defs>
    <linearGradient id="linear-gradient" x1="1" x2="0" y2="1" gradientUnits="objectBoundingBox">
      <stop offset="0" stop-color="#564f9f"/>
      <stop offset="1" stop-color="#134394"/>
    </linearGradient>
  </defs>
  <g id="Rectangle_137" data-name="Rectangle 137" fill="#a5a5a5" stroke="#707070" stroke-width="1" opacity="0">
    <rect width="24" height="24" stroke="none"/>
    <rect x="0.5" y="0.5" width="23" height="23" fill="none"/>
  </g>
  <g id="svgexport-6_-_2022-11-13T114204.838" data-name="svgexport-6 - 2022-11-13T114204.838" transform="translate(6 4)">
    <path id="Path_41230" data-name="Path 41230" d="M13.5,6H13V4A4,4,0,0,0,5,4V6H4.5A1.5,1.5,0,0,0,3,7.5v7A1.5,1.5,0,0,0,4.5,16h9A1.5,1.5,0,0,0,15,14.5v-7A1.5,1.5,0,0,0,13.5,6ZM6.333,4a2.667,2.667,0,0,1,5.333,0V6H6.333Zm3.333,7.148v1.519a.667.667,0,0,1-1.333,0V11.148a1.333,1.333,0,1,1,1.333,0Z" transform="translate(-3)" fill="url(#linear-gradient)"/>
  </g>
</svg>
